<svg id="Capa_1" data-name="Capa 1" xmlns="http://www.w3.org/2000/svg" viewBox="0 0 20 67"><defs><style>.cls-1{fill:#0c9;}.cls-2{fill:#ff0023;}</style></defs><title>iconos</title><path d="M10,3.7H5.38v.88H10A3.76,3.76,0,1,1,6.24,8.35V5.2H5.36V8.35A4.66,4.66,0,0,0,9.54,13v3.71h.92V13A4.64,4.64,0,0,0,10,3.7Z"/><path class="cls-1" d="M10,10.65h0a2.3,2.3,0,0,1-2.3-2.3V6H10a2.3,2.3,0,0,1,0,4.61"/><path d="M10,51H5.38v.88H10a3.76,3.76,0,1,1-3.76,3.76V52.53H5.36v3.15A4.66,4.66,0,0,0,9.54,60.3V64h.92V60.3A4.64,4.64,0,0,0,10,51Z"/><path class="cls-2" d="M10,58h0a2.3,2.3,0,0,1-2.3-2.3v-2.3H10A2.3,2.3,0,0,1,10,58"/><circle cx="10" cy="20.8" r="0.85"/><circle cx="10" cy="24.67" r="0.85"/><circle cx="10" cy="28.53" r="0.85"/><circle cx="10" cy="32.4" r="0.85"/><circle cx="10" cy="36.27" r="0.85"/><circle cx="10" cy="40.13" r="0.85"/><circle cx="10" cy="44" r="0.85"/><circle cx="10" cy="47.86" r="0.85"/></svg>